<?xml version="1.0" encoding="UTF-8" standalone="no"?>
<!-- Created with Inkscape (http://www.inkscape.org/) -->

<svg
   version="1.1"
   id="svg1"
   width="1024"
   height="850"
   viewBox="0 0 1024 850"
   xmlns="http://www.w3.org/2000/svg"
   xmlns:svg="http://www.w3.org/2000/svg">
  <defs
     id="defs1" />
  <g
     id="g1">
    <path
       style="fill:#ffffff;fill-opacity:1"
       d="m 320.74724,711.01582 c -3.31165,-2.60494 -4.17089,-6.2959 -2.30544,-9.90327 C 320.03641,698.02891 321.80229,697 325.5,697 c 3.3747,0 5.5,1.00739 5.5,2.60699 0,1.65637 -0.51371,1.72363 -3.00027,0.39287 -2.51972,-1.34852 -6.64159,0.29638 -7.49709,2.99182 -1.03049,3.24679 1.93245,7.00832 5.52041,7.00832 2.65893,0 2.97695,-0.32938 2.97695,-3.08333 0,-3.93782 2.36375,-3.42841 2.83579,0.61114 0.61481,5.26139 -6.13488,7.38457 -11.08855,3.48801 z m 17.53554,0.68964 c 3.42888,-8.93551 6.46408,-14.68506 7.75719,-14.69437 0.9693,-0.007 2.75197,2.80748 4.81063,7.59495 3.19765,7.43626 3.4297,11.12353 0.41812,6.64396 -2.05883,-3.06239 -8.82117,-3.23545 -9.76872,-0.25 -0.34913,1.1 -1.3276,2 -2.17438,2 -0.84908,0 -1.3168,-0.5806 -1.04284,-1.29454 z m 9.70191,-6.45546 c -0.008,-0.9625 -0.41006,-2.37329 -0.89252,-3.1351 -0.70358,-1.11096 -1.09639,-0.97552 -1.98468,0.68426 C 343.49138,705.81889 343.74232,707 346,707 c 1.24393,0 1.99421,-0.66156 1.98469,-1.75 z M 361.2,711.8 c -2.092,-2.092 -1.32416,-2.56832 3.3,-2.04711 3.6608,0.41262 4.5,0.21041 4.5,-1.08429 0,-1.00358 -1.43968,-1.97918 -3.89718,-2.64091 -4.09333,-1.10222 -5.54354,-3.06375 -4.55884,-6.16624 1.00649,-3.1712 9.27459,-3.95295 10.2582,-0.96992 0.34434,1.04429 -0.24412,1.25714 -2.35829,0.85299 -6.58074,-1.25799 -7.20808,1.57033 -0.94389,4.25548 4.84842,2.07827 5.81841,4.53874 2.92857,7.42857 -1.85518,1.85518 -7.51695,2.08305 -9.22857,0.37143 z m 21.8,-5.15024 c 0,-6.22271 -0.11426,-6.5312 -2.53109,-6.83334 C 375.51028,699.19652 378.09642,697.5 384,697.5 c 6.04736,0 8.50492,1.5731 3.9056,2.5 -2.31069,0.46568 -2.47842,0.90581 -2.4433,6.41135 0.0247,3.86611 -0.39478,6.05735 -1.2123,6.33333 -0.9153,0.30899 -1.25,-1.323 -1.25,-6.09492 z m 14.41714,4.99491 c -0.28605,-0.74543 -0.38442,-4.23293 -0.21861,-7.75 L 397.5,697.5 l 4.62873,-0.29984 c 3.24768,-0.21038 5.11247,0.1839 6.25,1.32143 1.8964,1.8964 2.12392,5.57576 0.4484,7.25128 -0.89717,0.89717 -0.88837,1.79731 0.0374,3.82923 1.72999,3.79692 0.38478,4.38528 -2.4626,1.07707 -2.78822,-3.23948 -5.75329,-3.20086 -6.22152,0.0811 -0.35392,2.4807 -1.95422,2.99291 -2.76331,0.88445 z m 7.33286,-6.27496 c 1.53531,-0.41144 2.25,-1.36003 2.25,-2.98634 C 407,700.32619 406.52099,700 403.5,700 c -3,0 -3.5,0.33333 -3.5,2.33333 0,3.5721 0.81263,4.09156 4.75,3.03638 z m 15.33037,5.88029 c -1.17766,-0.9625 -2.40603,-3.40444 -2.7297,-5.42653 -0.77521,-4.8429 2.83075,-8.82347 7.99309,-8.82347 5.18468,0 8.11079,2.88614 8.11079,8 0,3.21009 -0.5568,4.66438 -2.33806,6.10676 -2.92909,2.37183 -8.22524,2.44057 -11.03612,0.14324 z m 9.3482,-2.82143 C 432.7659,705.09124 430.49242,700 425.66482,700 421.85024,700 420,701.51178 420,704.62857 c 0,2.90097 2.52959,5.37143 5.5,5.37143 1.29643,0 3.06429,-0.70714 3.92857,-1.57143 z m 12.2381,3.90476 C 441.3,711.96667 441,708.36667 441,704.33333 c 0,-9.06346 1.33663,-9.51468 6.73061,-2.27211 l 3.76939,5.06121 0.30226,-5.06121 c 0.2157,-3.61181 0.71686,-5.06122 1.75,-5.06122 1.14301,0 1.44774,1.6839 1.44774,8 0,4.4 -0.3375,8.00892 -0.75,8.01983 -0.4125,0.0109 -2.87318,-2.35159 -5.46817,-5.25 l -4.71817,-5.26983 -0.0318,5.25 c -0.0296,4.87374 -0.72571,6.22279 -2.36516,4.58333 z m 23.78788,-1.78788 c -3.44105,-3.44104 -3.35856,-8.68919 0.18031,-11.47287 5.83396,-4.58899 13.36514,-1.11263 13.36514,6.16929 0,6.95065 -8.55052,10.29852 -13.54545,5.30358 z M 474.8,708.8 c 0.66,-0.66 1.2,-2.37 1.2,-3.8 0,-1.43 -0.54,-3.14 -1.2,-3.8 -0.66,-0.66 -2.37,-1.2 -3.8,-1.2 -1.43,0 -3.14,0.54 -3.8,1.2 -0.66,0.66 -1.2,2.37 -1.2,3.8 0,1.43 0.54,3.14 1.2,3.8 0.66,0.66 2.37,1.2 3.8,1.2 1.43,0 3.14,-0.54 3.8,-1.2 z m 12.88333,3.55 C 487.3075,711.97417 487,708.36667 487,704.33333 c 0,-9.04158 1.51431,-9.6207 5.79031,-2.21439 l 2.9554,5.11893 2.78607,-5.11893 c 4.09892,-7.53107 5.61933,-6.84074 5.26028,2.38839 -0.32371,8.32099 -2.01346,10.46875 -2.79206,3.54885 l -0.5,-4.44381 -1.9774,3.69381 c -1.08758,2.0316 -2.34025,3.69382 -2.78373,3.69382 -0.44348,0 -1.80364,-1.6875 -3.0226,-3.75 L 490.5,703.5 l -0.31683,4 c -0.32738,4.13333 -1.31004,6.0398 -2.49984,4.85 z M 513,705 c 0,-6.08889 0.31803,-8.06066 1.25,-7.75 0.84848,0.28283 1.25,2.77222 1.25,7.75 0,4.97778 -0.40152,7.46717 -1.25,7.75 -0.93197,0.31066 -1.25,-1.66111 -1.25,-7.75 z m 9.99753,7.25 C 522.99,709.9673 529.57846,697 530.74579,697 531.86241,697 539,710.3465 539,712.43446 c 0,1.51884 -2.94585,0.3115 -3.5,-1.43446 -0.49173,-1.54931 -1.51303,-2 -4.5322,-2 -2.87398,0 -4.17851,0.5252 -4.9678,2 -1.04076,1.94468 -2.9975,2.75932 -3.00247,1.25 z M 533,705.93426 c 0,-0.58616 -0.50625,-2.01168 -1.125,-3.16782 -1.12368,-2.09962 -1.12651,-2.09926 -2.41226,0.30319 -0.708,1.3229 -1.07519,2.74842 -0.81599,3.16782 C 529.365,707.39959 533,707.14642 533,705.93426 Z m 25.63486,4.99316 C 556.62457,709.34612 556,707.9652 556,705.10173 c 0,-6.41051 6.36116,-10.11955 12.09375,-7.05156 2.91501,1.56007 1.36861,2.89912 -2.60361,2.25452 -4.08152,-0.66234 -6.49014,0.91355 -6.49014,4.24633 0,3.60814 2.78845,5.74499 6.67403,5.11445 2.3715,-0.38484 3.32597,-0.15801 3.32597,0.79041 0,3.09176 -6.6495,3.39426 -10.36514,0.47154 z M 579,711 c -2.57446,-2.57446 -2.98251,-14 -0.5,-14 1.14465,0 1.5,1.25556 1.5,5.3 0,5.73778 1.17046,7.7 4.59301,7.7 2.69364,0 3.40699,-1.70959 3.40699,-8.16512 0,-3.55358 0.36188,-4.88267 1.25,-4.59091 1.39145,0.45709 2.20224,6.81803 1.31809,10.34078 C 589.2179,712.9643 582.8456,714.8456 579,711 Z m 20.41714,0.64467 c -1.00306,-2.61394 0.0486,-13.97461 1.33286,-14.39863 0.91521,-0.30217 1.25,1.35052 1.25,6.17063 V 710 h 4 c 2.88889,0 4,0.41667 4,1.5 0,2.02122 -9.81129,2.15534 -10.58286,0.14467 z m 20.22234,0.66148 C 619.28777,711.95443 619,709.07296 619,705.90288 c 0,-5.15089 -0.23092,-5.79776 -2.17167,-6.08333 -1.19442,-0.17575 -2.35692,-0.88205 -2.58334,-1.56955 -0.30172,-0.91617 1.36879,-1.25 6.25501,-1.25 4.88622,0 6.55673,0.33383 6.25501,1.25 -0.22642,0.6875 -1.38892,1.3938 -2.58334,1.56955 -1.94603,0.28635 -2.17167,0.9296 -2.17167,6.19098 0,5.4875 -0.86408,7.79205 -2.36052,6.29562 z M 636,711 c -2.57446,-2.57446 -2.98251,-14 -0.5,-14 1.14738,0 1.5,1.26417 1.5,5.37756 0,5.71968 1.47687,8.05852 4.70196,7.44623 1.41742,-0.2691 1.90388,-1.59313 2.29804,-6.25473 0.72311,-8.55197 3,-8.71067 3,-0.2091 0,5.61082 -0.31186,6.74507 -2.22251,8.08334 C 641.74603,713.56662 638.3975,713.3975 636,711 Z m 20,-6 v -8 h 4.97695 c 4.26831,0 5.22181,0.37371 6.69671,2.62469 1.61306,2.46185 1.61575,2.80593 0.0432,5.54588 -1.34643,2.34601 -1.44184,3.297 -0.48457,4.82983 1.9282,3.08754 -0.20753,3.75374 -2.39723,0.74777 C 662.24448,707.19184 659,707.05385 659,710.5 c 0,1.55556 -0.56667,2.5 -1.5,2.5 -1.20833,0 -1.5,-1.55556 -1.5,-8 z m 9.5,-2.57195 c 0,-1.44429 -0.81544,-2.00667 -3.25,-2.24141 -2.84981,-0.27477 -3.25,-0.0182 -3.25,2.08333 0,3.19538 0.62727,3.65675 3.81326,2.80468 1.7382,-0.46487 2.68674,-1.39923 2.68674,-2.6466 z m 9.5,9.58075 C 675,709.51055 681.41516,697 682.69621,697 c 1.87929,0 8.49888,14.16166 7.22614,15.45927 -0.59641,0.60806 -1.50744,0.15041 -2.48832,-1.25 -2.06626,-2.95 -7.898,-3.07936 -9.43403,-0.20927 -1.1174,2.08788 -3,2.72093 -3,1.0088 z m 10,-6.07454 c 0,-0.58616 -0.52067,-2.03862 -1.15704,-3.2277 -1.13082,-2.11295 -1.17456,-2.11713 -1.92972,-0.18426 C 680.62138,705.82889 680.90562,707 683,707 c 1.1,0 2,-0.47958 2,-1.06574 z m 13,-0.96533 c 0,-6.06192 0.31861,-8.0304 1.25,-7.72289 0.77205,0.2549 1.36326,2.75006 1.54622,6.52572 l 0.29622,6.11302 3.70378,0.30761 c 5.53551,0.45974 4.46677,2.26368 -1.54622,2.60987 L 698,713.10452 Z M 451,674.05898 445.5,673.5 l -0.29199,-7.74604 c -0.27416,-7.27297 -0.45738,-7.83267 -3,-9.16468 -1.48941,-0.78025 -4.1477,-2.91954 -5.90733,-4.75396 C 430.01793,645.28549 430,645.14141 430,601.20643 v -39.8578 l 2.25,-2.0995 c 1.2375,-1.15473 4.725,-3.37067 7.75,-4.92432 4.89786,-2.51555 6.54006,-2.82481 15,-2.82481 8.22152,0 10.2719,0.36176 15.23579,2.68817 7.0248,3.29229 14.52597,10.62602 17.70708,17.31183 3.09832,6.51182 3.94598,19.00821 1.72245,25.39292 -1.51526,4.35098 -1.50234,4.42734 1.35412,8 1.58619,1.98389 4.14285,6.30708 5.68147,9.60708 2.50476,5.37214 2.7975,7.09876 2.7975,16.5 0,9.38448 -0.29454,11.12909 -2.77235,16.42139 -9.00332,19.23 -25.28533,28.71504 -45.72606,26.63759 z m 22.38268,-9.92661 c 14.67613,-7.22503 22.74198,-23.47761 19.73922,-39.77422 -1.46741,-7.96392 -2.78766,-10.69491 -8.18492,-16.93096 -2.4399,-2.81909 -3.88537,-5.37341 -3.5806,-6.32739 0.2811,-0.87989 1.2609,-3.6248 2.17732,-6.0998 4.81868,-13.01382 -2.69794,-29.12912 -16.48289,-35.33862 -7.08221,-3.1902 -18.01868,-2.92561 -24.75024,0.59881 l -5.19942,2.72225 -0.30058,23.75878 c -0.16531,13.06733 -0.16717,31.2864 -0.004,40.48683 l 0.29645,16.72805 3.70355,3.77195 3.70355,3.77195 0.5,-41.89975 0.5,-41.89975 4,-1.40633 c 6.94718,-2.44251 15.96035,-0.0899 21.27292,5.55256 7.88638,8.37613 8.17848,20.82116 0.67541,28.77673 -1.91088,2.02613 -3.35598,3.75092 -3.21133,3.83286 12.04288,6.8225 17.04623,14.43746 17.1118,26.04368 0.0473,8.37869 -2.55901,15.04309 -8.14815,20.83473 -5.43741,5.63443 -10.52608,7.90474 -18.95065,8.45486 l -7.25,0.47342 v 3.99698 3.99698 l 7.93533,-0.45937 c 6.31195,-0.36539 9.26752,-1.11521 14.44735,-3.66523 z m -4.87651,-13.58312 c 6.56939,-3.84992 10.47207,-11.04574 10.48445,-19.33137 0.0117,-7.86368 -1.57951,-11.72046 -6.76697,-16.40133 -4.54322,-4.09955 -9.37132,-5.80263 -16.47365,-5.81097 L 451,609 v 21.83333 c 0,12.00834 0.3375,22.18068 0.75,22.6052 1.55743,1.60283 12.23165,-0.23773 16.75617,-2.88928 z m -6.37529,-50.13158 c 7.36395,-3.76704 10.37556,-12.22368 7.0392,-19.76609 -2.77992,-6.28445 -10.10707,-10.45845 -15.83531,-9.02075 C 451.0142,572.21325 451,572.31097 451,587.69631 v 15.47949 l 4.25,-0.70615 c 2.3375,-0.38838 5.4339,-1.31177 6.88088,-2.05198 z m -184.64394,71.78356 c -25.85212,-8.93945 -42.67066,-38.6095 -38.55653,-68.01862 2.70901,-19.36488 12.2525,-35.79708 26.19915,-45.11029 C 271.60909,554.74546 282.03757,551 287.60534,551 c 3.0429,0 3.39466,0.28716 3.39466,2.7712 0,2.59852 -0.37987,2.84339 -6.09627,3.92975 -3.35295,0.6372 -8.64045,2.39282 -11.75,3.90138 -11.53382,5.59547 -22.98052,20.78438 -26.77018,35.52202 -2.00015,7.77843 -2.23342,22.43079 -0.47562,29.87565 4.8157,20.39603 22.68237,38.62448 39.85091,40.65784 4.95548,0.58691 5.24116,0.77667 5.24116,3.48145 0,2.704 -0.23282,2.85892 -4.25,2.82806 -2.3375,-0.018 -6.50588,-0.81271 -9.26306,-1.76612 z m 51.92866,0.43942 c -0.2869,-0.74764 -0.38527,-23.36014 -0.21862,-50.25 0.29628,-47.80275 0.35154,-48.99567 2.48333,-53.61022 1.19917,-2.59577 4.24973,-6.73082 6.77902,-9.18901 14.59112,-14.18095 38.27137,-10.05789 47.25058,8.22698 L 388.5,573.5 l 0.28515,50.25 0.28516,50.25 h -2.99969 -2.99969 l -0.28547,-49.75 c -0.27995,-48.79028 -0.3271,-49.82716 -2.44388,-53.75 -7.83792,-14.52531 -25.7512,-17.63217 -37.2608,-6.46248 -7.23262,7.01901 -7.5684,8.53047 -7.49458,33.73506 l 0.0652,22.27259 3.37045,3.47741 c 1.85374,1.91258 3.71119,3.47742 4.12766,3.47742 0.41646,0 0.89069,-11.8125 1.05383,-26.25 0.27582,-24.40895 0.43689,-26.44185 2.29662,-28.98547 2.31781,-3.17014 9.0349,-6.77442 12.56572,-6.74257 4.47696,0.0404 10.52089,3.57309 13.01371,7.60656 2.36547,3.82741 2.38974,4.14434 2.51658,32.86808 0.0704,15.95187 -0.0507,29.32365 -0.26929,29.71506 -0.38918,0.69701 -9.12477,-3.70213 -18.59174,-9.36258 C 353.11421,624.28209 350.75171,623 350.48498,623 350.21824,623 350,624.96841 350,627.37425 v 4.37424 l 9.75,5.45535 c 12.24211,6.84974 13.8437,9.02852 14.74797,20.0629 0.37109,4.5283 0.52336,10.03326 0.33837,12.23326 -0.31137,3.70304 -0.55906,4 -3.33634,4 h -3 l -0.28047,-11.60432 C 367.89566,648.49603 368.07185,648.79321 356.75,642.55001 L 350,638.82787 V 656.41393 674 h -3 -3 v -19.44911 -19.44911 l -3.34439,-2.55089 C 338.81619,631.1479 336.7831,630 336.13761,630 c -0.86158,0 -1.14946,5.25077 -1.08282,19.75 0.12227,26.60049 0.37294,24.25 -2.58617,24.25 -1.39227,0 -2.76612,-0.61171 -3.05302,-1.35935 z m 37.05022,-97.33317 c -2.22916,-3.40211 -5.99622,-4.61757 -10.10676,-3.26097 C 350.37851,574.02027 350,575.41841 350,595.53542 v 18.0904 l 2.75,2.61795 c 1.5125,1.43988 5.45,4.13113 8.75,5.98056 l 6,3.36259 0.26811,-23.94134 c 0.22829,-20.38516 0.0349,-24.29735 -1.30229,-26.3381 z m 173.20085,98.02585 C 539.3,672.96667 539,649.47667 539,621.13333 c 0,-34.51411 0.33179,-51.20154 1.00464,-50.52869 0.55255,0.55255 4.18224,8.40505 8.06597,17.45 3.88374,9.04495 8.89215,20.63409 11.12981,25.75365 l 4.06846,9.30829 2.86556,-2.74538 C 567.7105,618.86124 569,617.17072 569,616.61449 c 0,-0.89406 -18.28004,-44.35728 -24.59815,-58.48533 -1.32102,-2.95397 -2.40185,-5.76647 -2.40185,-6.25 0,-1.33433 6.75101,-1.02619 13.76916,0.62848 9.16545,2.16094 15.88093,5.95727 22.82925,12.90559 10.62852,10.62851 16.10334,24.99617 15.08461,39.58677 -0.61649,8.82948 -2.43063,14.36457 -7.31357,22.31424 l -3.5713,5.81423 8.60093,19.80994 c 4.7305,10.89546 8.60092,20.12007 8.60092,20.49912 0,0.37905 -1.41013,0.54818 -3.13363,0.37583 -3.04231,-0.30423 -3.37201,-0.85249 -11.31327,-18.81336 -4.4988,-10.175 -8.69153,-19.44156 -9.31719,-20.59236 -0.97486,-1.79312 -0.58228,-2.83136 2.74499,-7.25954 9.7631,-12.99346 11.36762,-30.0314 4.25175,-45.1481 -4.83698,-10.2755 -17.70856,-20.916 -28.48265,-23.54562 -3.16147,-0.77162 -3.3402,-0.11118 -1.29476,4.78425 1.10577,2.64647 2.78124,4.13162 6.97691,6.18437 6.80537,3.32956 13.81173,11.08 16.79352,18.577 3.20874,8.06764 3.02581,19.58665 -0.43097,27.13725 -3.02735,6.61262 -8.29549,12.74043 -13.24425,15.40552 -3.30423,1.77944 -3.55045,2.24301 -3.55045,6.68463 0,2.62493 0.27623,4.7726 0.61385,4.7726 0.33761,0 2.35758,-0.98003 4.48881,-2.17785 2.13123,-1.19782 4.02791,-1.98532 4.21484,-1.75 0.79471,1.00043 14.6825,34.16995 14.6825,35.0676 0,0.54283 -1.39926,0.84596 -3.10947,0.67361 -3.26116,-0.32865 -3.39066,-0.56547 -13.41774,-24.53638 -1.31445,-3.14235 -1.41858,-3.18657 -4.16049,-1.76703 -2.80397,1.45168 -2.81378,1.49232 -3.3123,13.72302 L 559.5,673.5 h -3 -3 l -0.26493,-29 -0.26493,-29 -3.18576,-7.5 c -1.75217,-4.125 -3.4838,-7.86585 -3.84808,-8.31301 -0.36427,-0.44715 -0.66567,12.37785 -0.66977,28.5 C 545.25428,676.4304 545.3922,674 542.66667,674 c -1.28334,0 -2.63334,-0.3 -3,-0.66667 z m 33.1349,-74.20013 c -0.35398,-6.11469 -1.03089,-8.84303 -3.03927,-12.25 -2.89006,-4.90261 -8.40918,-10.56965 -9.36393,-9.6149 -0.48426,0.48425 9.28109,25.57512 11.27966,28.9817 1.21494,2.07088 1.53723,0.0294 1.12354,-7.1168 z m 60.64783,73.59554 c -0.29657,-0.77287 -0.40652,-23.4155 -0.24431,-50.31697 L 633.5,573.5 l 2.79009,-5.6816 c 3.02645,-6.16293 7.37146,-10.52959 13.98771,-14.05742 5.9851,-3.19129 19.3112,-3.16943 25.44564,0.0417 5.84295,3.05859 11.06716,8.55144 13.88129,14.59511 l 2.37573,5.10217 0.01,50.25 L 692,674 h -2.96485 -2.96484 L 685.78515,623.75 685.5,573.5 l -2.80528,-4.77239 c -9.17401,-15.60701 -31.77534,-14.92706 -39.94472,1.2017 l -2.75,5.42932 v 22.62452 22.62452 l 3.29761,3.19616 c 1.81368,1.75789 3.61368,3.19617 4,3.19617 0.38631,0 0.70239,-11.36952 0.70239,-25.2656 0,-29.0289 0.31411,-30.36726 8.10534,-34.53585 7.11623,-3.80745 13.99227,-1.96346 19.33287,5.1846 1.95815,2.62086 2.07647,4.26396 2.35386,32.68821 0.22315,22.86567 0.007,29.92864 -0.91469,29.92864 -1.32989,0 -14.82999,-7.19166 -19.03175,-10.13844 C 656.38573,623.8377 654.89857,623 654.54084,623 c -0.35773,0 -0.51327,2.09394 -0.34563,4.65321 l 0.30479,4.6532 8,4.39592 c 4.4,2.41775 9.575,5.95503 11.5,7.86062 l 3.5,3.46471 0.32947,12.98617 L 678.15894,674 H 675.07947 672 l -0.0147,-10.75 c -0.009,-6.54885 -0.49749,-11.68229 -1.25,-13.13557 C 669.62366,647.96768 657.15991,640 654.91336,640 654.39803,640 654,647.40835 654,657 v 17 h -3 -3 v -19.44911 -19.44911 l -3.34439,-2.55089 C 642.81619,631.1479 641.02497,630 640.67511,630 c -0.34986,0 -0.75738,9.7875 -0.90561,21.75 l -0.2695,21.75 -2.75569,0.31697 c -1.68267,0.19355 -2.96565,-0.23019 -3.29491,-1.08823 z M 672,602.64922 c 0,-13.77891 -0.4251,-23.5702 -1.10842,-25.53038 -1.55448,-4.4592 -5.92604,-6.5926 -10.44971,-5.09966 C 654.3574,574.02724 654,575.34733 654,595.81274 v 18.36772 l 2.80147,2.45825 c 3.40248,2.98562 12.22342,8.24137 13.94853,8.31091 0.96422,0.0389 1.25,-5.05957 1.25,-22.3004 z m 65,9.78436 v -61.56642 l 2.75,0.31642 2.75,0.31642 0.25908,51.25 0.25908,51.25 H 747 h 3.98184 l 0.25908,-51.25 0.25908,-51.25 2.75,-0.31642 2.75,-0.31642 V 602.43358 654 h 15 15 v 3 3 h -15 -15 v 3.97327 3.97326 l 14.75,0.27674 14.75,0.27673 0.31642,2.75 0.31642,2.75 H 762.06642 737 Z M 751,664 v -4 h -4 -4 v 4 4 h 4 4 z m -467.40291,-5.04419 c -11.16423,-3.46866 -19.90596,-11.23562 -25.67651,-22.81338 -3.71346,-7.45051 -5.0698,-13.86595 -5.05708,-23.91977 0.0293,-23.14607 15.08327,-43.9057 33.96027,-46.83168 l 4.32377,-0.67019 -0.32377,3.36747 c -0.30169,3.13779 -0.62867,3.41915 -4.79398,4.12505 -5.07458,0.86001 -14.00557,6.57731 -17.56578,11.24499 -1.29749,1.70109 -3.83106,6.23138 -5.63017,10.0673 -2.8376,6.05012 -3.32403,8.27216 -3.67049,16.76705 -0.5835,14.30684 2.71437,24.27989 11.00195,33.27085 4.26854,4.63082 14.55673,10.4365 18.49442,10.4365 1.92321,0 2.34028,0.52413 2.34028,2.94098 0,1.61754 -0.3375,3.14525 -0.75,3.39491 -0.4125,0.24966 -3.40631,-0.37137 -6.65291,-1.38008 z M 441.26363,533.04823 c -4.56441,-1.11426 -10.22738,-5.71721 -11.86974,-9.64793 -3.69092,-8.83364 -0.0953,-19.43007 7.9077,-23.30425 18.30979,-8.86362 35.88653,11.6426 23.05265,26.8948 -4.46777,5.30965 -12.15805,7.74975 -19.09061,6.05738 z m 10.20207,-6.46945 c 4.11606,-1.7198 6.5343,-6.02355 6.5343,-11.62912 0,-3.38589 -0.62579,-4.77545 -3.4,-7.54966 -2.95363,-2.95363 -4.05184,-3.4 -8.36514,-3.4 -5.98019,0 -9.55349,2.4054 -11.26153,7.58082 -2.11159,6.39816 0.17361,11.73845 6.52667,15.2522 2.73763,1.51413 5.9282,1.43273 9.9657,-0.25424 z m 190.29834,6.46344 C 633.79461,530.5321 628,523.42146 628,516.15216 c 0,-3.71645 2.30877,-9.73024 4.78814,-12.47197 5.06168,-5.59731 15.32162,-7.27135 22.64614,-3.69503 11.74411,5.73428 12.77968,23.28773 1.79597,30.44248 -4.16754,2.71471 -11.31308,3.92267 -15.46621,2.61458 z m 12.21251,-7.86163 c 7.40163,-5.48971 4.83096,-19.10151 -3.97655,-21.05597 -8.23158,-1.82666 -15,3.46606 -15,11.7296 0,2.72461 0.68452,5.67806 1.6283,7.02549 3.58941,5.1246 12.03151,6.24426 17.34825,2.30088 z M 364,515.38369 v -17.6163 l 9.75,0.40033 c 14.05487,0.5771 18.25,3.55279 18.25,12.94507 0,2.21028 -0.48631,4.92737 -1.08068,6.03797 -1.66867,3.11794 -8.65676,5.8024 -15.16932,5.82728 L 370,523 v 5 c 0,4.88889 -0.0667,5 -3,5 h -3 z M 384,515 c 1.1,-1.1 2,-3.125 2,-4.5 0,-4.40049 -3.23002,-6.5 -10,-6.5 h -6 v 6.5 6.5 h 6 c 4.66667,0 6.44444,-0.44444 8,-2 z M 503.22611,515.81514 503.5,498.5 l 8.05727,-0.28733 c 4.68517,-0.16707 9.69207,0.25144 11.96344,1 4.99071,1.64475 8.47929,6.60945 8.47929,12.06714 0,3.26374 -0.6378,4.58556 -3.52777,7.31115 l -3.52776,3.32711 3.52776,4.9104 c 1.94027,2.70071 3.52777,5.19415 3.52777,5.54096 0,0.34681 -1.4625,0.62248 -3.25,0.6126 -2.78785,-0.0154 -3.71324,-0.7264 -6.50769,-5 C 519.14409,523.24387 518.76741,523 514.54711,523 h -4.43753 l -0.30479,4.75 c -0.29274,4.56224 -0.4342,4.76246 -3.57868,5.06514 l -3.2739,0.31514 z m 19.37419,0.41955 c 1.92968,-1.28849 3.41439,-5.02836 2.74411,-6.91225 C 523.84791,505.11635 521.85548,504 515.84501,504 H 510 v 6.5 6.5 l 5.75,-0.0153 c 3.1625,-0.008 6.24513,-0.34592 6.8503,-0.75 z M 579,518.5499 v -14.45009 l -5.75,-0.29991 C 567.86331,503.51895 567.5,503.34204 567.5,501 v -2.5 l 14.81904,-0.27713 14.81904,-0.27713 -0.31904,2.77713 c -0.30293,2.63687 -0.61009,2.7923 -6.08176,3.07741 l -5.76273,0.30029 0.0797,12.19971 C 585.17276,534.42634 585.43363,533 582,533 h -3 z m -237.09272,2.12516 c -6.38558,-3.36853 -6.3866,-5.89174 -0.004,-9.12621 C 349.6216,507.63784 350,507.84587 350,516 c 0,8.1403 -0.72733,8.56046 -8.09272,4.67506 z m 336.83578,1.73466 c -1.16313,-1.16313 -0.87007,-12.21319 0.34381,-12.96341 1.20338,-0.74373 8.42479,2.10023 11.16313,4.3963 0.9625,0.80705 1.75,2.03592 1.75,2.73082 0,2.70961 -11.37559,7.71765 -13.25694,5.83629 z M 619,445.54679 c 0,-0.24926 2.04254,-1.35672 4.53899,-2.46101 5.65919,-2.50333 8.31726,-7.833 9.16045,-18.36754 l 0.57776,-7.21824 -2.3886,2.10197 c -3.05625,2.68949 -18.59546,7.67918 -22.44777,7.20804 -2.55236,-0.31215 -2.14826,-0.59952 3.05917,-2.17548 8.74471,-2.64646 15.27935,-5.61715 15.89707,-7.2269 0.70946,-1.84883 0.83726,-1.88017 -6.68212,1.63858 -7.1458,3.34392 -14.52094,5.06693 -13.31141,3.10986 0.39297,-0.63584 1.1861,-1.15607 1.76251,-1.15607 2.18903,0 14.0832,-6.27995 17.38518,-9.17912 2.93479,-2.57679 3.44877,-3.67357 3.44877,-7.35937 0,-2.38222 -0.40663,-5.40083 -0.90362,-6.70801 l -0.90362,-2.37671 -11.84638,3.85034 c -21.73929,7.06576 -48.12851,12.89403 -69.70354,15.39458 -9.83416,1.13978 -4.16508,2.35447 14.04176,3.00868 15.84582,0.56937 17.4997,0.44887 28.68323,-2.0897 6.52731,-1.48164 12.48981,-2.93257 13.25,-3.22428 0.7602,-0.29171 1.38217,-0.0684 1.38217,0.49623 0,0.98495 -2.2633,1.84094 -15.5,5.86216 l -6,1.82275 6.25,0.29894 c 6.04433,0.28911 7.93736,1.34203 4.66821,2.59652 -0.86998,0.33385 -5.4075,0.60699 -10.08338,0.60699 -5.2705,0 -11.5285,0.77284 -16.46591,2.03347 -4.38036,1.1184 -12.33034,2.6646 -17.66661,3.43599 -12.77519,1.84672 -48.20231,3.1449 -48.20231,1.7663 0,-0.56067 2.1375,-1.46488 4.75,-2.00936 3.1199,-0.65023 3.84465,-1.03054 2.11187,-1.10818 -1.45098,-0.065 -6.40098,-1.17214 -11,-2.46025 -7.63942,-2.13969 -9.63544,-2.29089 -23.10258,-1.75 -17.99192,0.72261 -29.94339,0.0732 -30.51397,-1.65797 -0.31473,-0.95492 2.73554,-1.27316 12.92135,-1.34812 L 469.5,420.80376 460,419.36413 c -12.23342,-1.85385 -18.22384,-3.53564 -18.80512,-5.27949 -0.51166,-1.53497 1.35293,-1.3779 16.30512,1.37349 10.63105,1.95624 32.81306,1.93055 46.21973,-0.0535 5.92915,-0.87747 10.89934,-1.70904 11.04487,-1.84793 0.26881,-0.25656 -3.83731,-8.09624 -6.51484,-12.43857 -2.15976,-3.50263 -3.33898,-0.85567 -2.56893,5.76639 0.50544,4.34651 0.35777,5.29503 -0.76606,4.92042 -0.76572,-0.25524 -2.00291,-2.22826 -2.74931,-4.38449 -0.74641,-2.15624 -1.80346,-5.04076 -2.34902,-6.41004 l -0.99191,-2.48962 -1.99567,2.73962 C 495.73124,402.76717 494.42072,404 493.91659,404 493.41247,404 493,400.67609 493,396.61354 v -7.38645 l -4.75,-0.67051 c -6.34327,-0.8954 -8.25,-1.50514 -8.25,-2.63819 0,-0.90763 12.2061,-0.52014 20,0.63491 2.34217,0.34711 0.70311,-0.6526 -4.9547,-3.022 -8.6607,-3.62697 -10.88799,-5.02195 -9.78283,-6.1271 0.63843,-0.63844 1.67171,-0.31148 18.98753,6.00822 5.3625,1.95713 9.75,3.37665 9.75,3.15449 0,-0.22217 -1.58601,-3.70311 -3.52446,-7.73542 -7.76537,-16.15332 -23.99934,-78.12735 -19.78265,-75.52129 0.54176,0.33482 2.02713,5.35735 3.30083,11.16118 1.2737,5.80383 2.48058,10.38765 2.68196,10.18627 0.20138,-0.20138 -0.79743,-7.29423 -2.21958,-15.7619 -3.32095,-19.77342 -4.38678,-43.46245 -2.08745,-46.39575 1.45212,-1.8525 1.57009,-1.24113 1.59955,8.28941 0.0404,13.06071 1.40478,25.53858 4.99873,45.71452 4.63624,26.02723 9.0936,41.26365 17.15732,58.64828 2.71752,5.85871 4.81378,11.21922 4.65835,11.91223 -0.16553,0.73806 1.37442,1.66905 3.7174,2.24739 4.77755,1.17928 43.19425,1.51185 49.25,0.42635 2.42995,-0.43557 4.25,-0.37432 4.25,0.14301 0,1.40991 -2.0799,1.9111 -13.17562,3.17493 -5.67841,0.64678 -10.77438,1.29143 -11.32438,1.43255 -0.56436,0.1448 -0.84653,2.52761 -0.64771,5.46961 l 0.35229,5.21303 9.64771,-0.70022 c 10.88588,-0.79008 27.76536,-4.86596 49.13293,-11.86411 7.96687,-2.60925 14.63395,-4.89282 14.81573,-5.07459 C 626.98272,387.35061 626.6223,385.31104 626,383 c -1.74019,-6.46256 0.92533,-6.8163 3.57512,-0.47445 l 1.37106,3.2814 7.77691,-3.00774 c 4.2773,-1.65426 7.90346,-3.12487 8.05813,-3.26803 0.15468,-0.14316 -0.51734,-1.65172 -1.49337,-3.35236 -1.49753,-2.60928 -1.56095,-3.29401 -0.40623,-4.38544 1.07243,-1.01365 1.46654,-1.02593 1.82225,-0.0568 0.24963,0.68014 1.23604,2.20255 2.19201,3.38312 1.52742,1.88629 2.03306,1.99356 4.17112,0.88488 1.33815,-0.69389 3.23485,-1.96153 4.2149,-2.81698 1.65046,-1.44063 0.87597,-1.88222 -10.5,-5.98673 -17.56688,-6.33822 -31.19703,-10.13259 -39.0052,-10.85828 -3.72719,-0.34641 -6.7767,-1.06434 -6.7767,-1.5954 0,-0.59937 -6.16311,-0.79724 -16.25,-0.52172 -12.60089,0.34419 -16.97313,0.82013 -19.47021,2.11945 -3.14631,1.63714 -3.25582,1.62126 -4.77134,-0.69171 -3.69456,-5.63862 -9.6593,-38.10058 -6.66023,-36.24706 C 554.69778,319.93125 555,316.16669 555,305.05902 555,296.77656 555.38589,290 555.85754,290 556.97927,290 558,300.04048 558,311.07433 c 0,10.81035 1.58594,22.70532 3.69101,27.68353 l 1.58239,3.74214 1.88203,-5.5 c 2.97838,-8.70391 14.70663,-32.20328 15.75034,-31.55824 0.52187,0.32253 -0.99172,4.72991 -3.37814,9.8367 -5.38295,11.5192 -10.91457,29.0437 -10.1408,32.12665 0.525,2.09176 1.31036,2.35275 8.84466,2.93925 4.54768,0.35401 12.99351,0.60024 18.76851,0.54718 l 10.5,-0.0965 -6,-1.3299 c -3.3,-0.73144 -9.6,-1.6102 -14,-1.95279 -10.87002,-0.84637 -13.30351,-1.39178 -11.44785,-2.56577 4.92577,-3.11628 31.12996,0.53634 54.30683,7.56989 6.52245,1.97938 12.04971,3.40816 12.2828,3.17506 0.2331,-0.2331 -1.21346,-2.3835 -3.21458,-4.77868 -2.00111,-2.39518 -7.28097,-9.09292 -11.73301,-14.88387 -4.45205,-5.79095 -11.41862,-14.50241 -15.48127,-19.3588 -4.06266,-4.85639 -7.12446,-9.09199 -6.80401,-9.41244 1.57533,-1.57533 6.53353,2.93049 18.6245,16.92526 17.36271,20.09657 22.88906,25.85583 32.23964,33.59832 6.7902,5.62245 9.72695,8.8172 9.72695,10.58149 0,0.27187 -0.6897,1.18402 -1.53268,2.02699 -1.27349,1.27349 -1.317,1.87802 -0.25729,3.57488 0.94101,1.50681 0.98999,2.5001 0.18679,3.78876 -1.64749,2.64325 -8.50475,6.21154 -11.97251,6.23009 -1.92828,0.0103 -3.9073,0.90166 -5.30488,2.38933 -1.22606,1.30508 -4.02338,3.18193 -6.21626,4.17078 -3.45094,1.55616 -3.91878,2.14473 -3.47931,4.37713 0.27926,1.41856 0.80322,4.2934 1.16436,6.38852 l 0.65661,3.80931 2.27209,-2.13452 c 3.70152,-3.4774 4.10838,-0.38272 0.59321,4.51208 -2.16952,3.021 -3.11612,5.49107 -3.12994,8.1673 -0.036,6.98047 -2.01265,17.77213 -4.01142,21.90103 -1.24407,2.56991 -3.39962,4.87139 -5.85501,6.2514 C 623.64829,445.76361 619,446.75522 619,445.54679 Z M 563.16163,423.1166 c 2.69285,-1.01839 1.07843,-1.31912 -17.11243,-3.18767 -5.74795,-0.59042 -11.17898,-1.4632 -12.06896,-1.93951 -0.99891,-0.5346 -6.75806,0.0107 -15.0492,1.425 -12.54922,2.14059 -13.13559,2.33814 -8.93104,3.0088 15.37651,2.45268 47.40506,2.87042 53.16163,0.69338 z m -35.1529,-11.69797 c 1.6548,-0.31976 2.73113,-1.03052 2.39186,-1.57949 -0.33928,-0.54896 -1.58071,-4.64164 -2.75873,-9.09484 l -2.14186,-8.09672 -6,-1.25959 c -3.3,-0.69277 -9.76064,-1.28847 -14.35699,-1.32379 -7.22515,-0.0555 -8.27478,0.15003 -7.75,1.51759 0.33385,0.86998 0.60984,2.10748 0.61331,2.75 0.003,0.64251 1.34994,1.93275 2.99213,2.86718 2.85911,1.62688 3.03006,1.61627 4.02886,-0.25 2.25723,-4.21767 4.75134,-2.34975 9.50763,7.12061 5.043,10.04121 3.60379,9.25621 13.47379,7.34905 z m 17.30495,-2.0844 c 5.3839,-0.50038 6.63832,-0.89801 5.49351,-1.74134 -0.86567,-0.63771 -1.73363,-3.53155 -2.08399,-6.94817 -0.33023,-3.2204 -0.74055,-5.97886 -0.91181,-6.12991 -0.17127,-0.15104 -4.28072,-0.47467 -9.13211,-0.71916 -8.53989,-0.43039 -8.80273,-0.3785 -8.25536,1.6299 0.31095,1.14095 0.86135,5.15449 1.22311,8.91897 l 0.65774,6.84453 3.01591,-0.60319 c 1.65876,-0.33175 6.1556,-0.89498 9.993,-1.25163 z m -116.27773,13.82471 c -3.65075,-1.95792 -5.89579,-4.63243 -4.80456,-5.72367 0.80043,-0.80043 10.77399,1.43463 12.4976,2.80069 1.64976,1.30754 -0.18569,4.76404 -2.52978,4.76404 -0.95173,0 -3.2752,-0.82848 -5.16326,-1.84106 z M 470.26844,409.75 c -0.53704,-0.6875 -1.73923,-4.35541 -2.67153,-8.15092 -3.16101,-12.86895 1.64182,-9.2591 5.29784,3.9819 1.35522,4.90821 -0.16446,7.32056 -2.62631,4.16902 z M 437,405.30438 c -20.33016,-3.4419 -42.76957,-14.77188 -62.81402,-31.7157 -4.77729,-4.0383 -9.54572,-8.30054 -10.59652,-9.47165 -3.81196,-4.24843 -0.91761,-2.77216 6.91054,3.52472 21.16459,17.02458 48.48323,29.08546 70.41901,31.08921 5.79792,0.52961 8.56356,1.20491 8.88334,2.16905 0.38416,1.15832 -0.89664,1.28204 -7.41901,0.71662 -4.33584,-0.37587 -9.45834,-0.88559 -11.38334,-1.13271 -1.925,-0.24712 0.18061,0.5554 4.67914,1.78338 4.49852,1.22799 8.51102,2.5702 8.91666,2.9827 0.75989,0.77273 -3.1859,0.80098 -7.5958,0.0544 z m 10.87063,-21.32185 C 442.02399,382.99462 434,379.4877 434,377.92031 c 0,-1.75885 7.83143,-0.45138 15.37657,2.56715 3.45419,1.3819 7.23099,2.51254 8.39287,2.51254 1.16189,0 2.39064,0.45 2.73056,1 0.71954,1.16424 -5.68829,1.15537 -12.62937,-0.0175 z m 86.11775,-0.46853 c 2.54387,-3.06518 14.10666,-5.5584 31.01162,-6.68688 23.66364,-1.57965 23.03249,-3.16388 -1,-2.5101 -20.16503,0.54858 -28,1.78807 -28,4.42962 0,1.15043 -0.73363,1.35663 -3.125,0.87836 -1.71875,-0.34375 -3.50141,-0.625 -3.96146,-0.625 -1.25628,0 -2.64103,-6.02555 -4.82625,-21.00078 -2.65438,-18.19039 -3.48622,-29.65073 -2.64239,-36.40453 0.93417,-7.47686 2.52573,-6.1579 2.67198,2.21433 0.0643,3.68004 0.44567,9.61598 0.84752,13.19098 0.66893,5.95115 0.7435,5.52844 0.88311,-5.00613 0.14146,-10.6735 2.35537,-33.9697 3.76017,-39.56687 0.33502,-1.33485 1.24788,-2.427 2.02858,-2.427 1.16255,0 1.27867,1.2216 0.64159,6.75 -1.28463,11.14768 -0.89332,50.73901 0.6336,64.10741 l 1.41146,12.35742 4.58854,-0.60311 c 12.26742,-1.61239 30.48095,-2.58155 48.78513,-2.59589 L 607.89317,370 l -3.01303,-5.72785 c -2.90873,-5.5296 -2.62998,-7.96927 0.60391,-5.28539 2.40338,1.99463 7.51595,11.8437 7.51595,14.47904 0,3.1042 0.68196,2.96731 -25,5.01816 -34.78325,2.77763 -41.46773,3.48685 -47.38132,5.02714 -7.26227,1.89158 -8.19811,1.89199 -6.6303,0.003 z M 490.52316,371.75 c -3.63096,-10.96122 -11.39283,-42.38264 -12.96543,-52.48636 -0.75021,-4.82 -1.4076,-7.30114 -1.46087,-5.51364 C 475.97601,317.80492 474,318.08878 474,314.05122 474,307.9198 470.85987,287.13237 468.55414,278 c -2.08645,-8.26384 -4.54281,-24.03115 -4.55132,-29.21482 -0.003,-1.748 3.70991,-4.40579 4.72985,-3.38585 0.30875,0.30876 1.16796,4.95772 1.90936,10.33102 0.74139,5.37331 2.16756,14.94465 3.16928,21.26965 l 1.8213,11.5 0.60054,-9.5 c 0.3303,-5.225 1.17713,-12.59927 1.88184,-16.38726 1.15229,-6.19383 1.66292,-7.16371 5.07159,-9.63294 2.08466,-1.51012 7.508,-4.22234 12.05186,-6.02716 10.68643,-4.24465 18.77631,-8.27804 25.32633,-12.62701 5.19444,-3.44892 5.28688,-3.46894 7.95242,-1.72241 2.4949,1.63472 2.56621,1.86263 0.95207,3.04292 -1.95184,1.42722 -1.56017,4.74495 2.69797,22.85386 3.04835,12.96394 3.6806,13.9239 10.11981,15.36493 2.9783,0.66651 10.7696,3.83857 17.31402,7.04901 6.54442,3.21045 17.74894,7.7379 24.89894,10.06101 10.86112,3.52889 14.27689,4.21609 20.76087,4.17674 4.26848,-0.0259 8.1938,-0.31466 8.72293,-0.64168 0.80671,-0.49857 -6.09949,-12.73733 -13.49536,-23.91568 -1.46189,-2.20955 -1.571,-2.79471 -0.45545,-2.44251 0.80686,0.25474 4.31954,4.2623 7.80595,8.90567 3.48642,4.64338 8.54892,11.23854 11.25,14.65591 2.70109,3.41737 4.91064,6.79237 4.91013,7.5 -7.2e-4,1.00577 -4.35523,1.2866 -19.95013,1.2866 -18.48867,0 -24.10172,-0.87847 -14.14564,-2.21385 C 594.14762,297.71686 596.63765,296 593.21898,296 589.3508,296 575.13225,291.82025 563,287.11668 c -6.875,-2.66537 -15.13532,-5.60848 -18.35626,-6.54023 -5.46665,-1.58139 -5.97878,-1.58322 -7.69785,-0.0275 -1.73276,1.56813 -1.98576,1.51105 -4.28122,-0.96579 -3.39921,-3.6678 -5.049,-11.36512 -7.23599,-33.76038 l -0.5544,-5.67721 -3.57669,2.42721 c -3.59608,2.44037 -6.93813,3.27264 -5.8097,1.44679 0.33327,-0.53923 -0.65268,-0.35326 -2.19098,0.41327 -1.5383,0.76653 -8.64691,3.51229 -15.79691,6.10169 -7.15,2.58941 -13.56671,5.23621 -14.25935,5.8818 -3.7046,3.45288 -6.21193,32.41069 -4.31817,49.87158 1.53889,14.18883 2.929,17.76868 3.01413,7.76207 0.0507,-5.95997 0.3134,-7.20001 1.31339,-6.20005 0.87089,0.87085 1.28457,5.55661 1.36398,15.45 0.098,12.21274 0.55372,16.04103 3.25605,27.35456 3.44162,14.40865 4.76807,22.34549 3.73451,22.34549 -0.36702,0 -0.85364,-0.5625 -1.08138,-1.25 z m 31.55908,-132.35912 c 1.29007,-1.56356 1.23022,-1.61843 -0.66448,-0.6092 -1.14524,0.61002 -2.72024,1.88237 -3.5,2.82744 -1.29007,1.56356 -1.23022,1.61843 0.66448,0.6092 1.14524,-0.61002 2.72024,-1.88237 3.5,-2.82744 z M 390,365.34557 c -10.04011,-5.36784 -9.73197,-5.12746 -7.61413,-5.94015 1.45735,-0.55924 15.98133,6.83805 19.06413,9.70966 2.58833,2.41101 -3.86142,0.28766 -11.45,-3.76951 z m 73.5,3.17585 c -20.62401,-2.83784 -26.13389,-4.22087 -24.26421,-6.09054 0.23983,-0.23983 8.37818,0.91511 18.08523,2.56653 9.70704,1.65142 17.88087,3.00259 18.16407,3.00259 0.2832,0 0.51491,0.45 0.51491,1 0,1.17455 -0.67318,1.14878 -12.5,-0.47858 z m -3,-6.16397 c -9.81799,-3.12795 -11.40102,-4.37689 -5.45,-4.29982 6.60336,0.0855 12.48384,1.404 12.20586,2.73672 -0.13428,0.64377 0.87822,1.45218 2.25,1.79648 2.8428,0.71349 3.38447,2.43303 0.74414,2.36227 -0.9625,-0.0258 -5.35,-1.19384 -9.75,-2.59565 z m -53.24146,-4.65962 c 0.21474,-0.65881 2.54956,-1.62105 5.18849,-2.13832 l 4.79806,-0.9405 -0.59602,-5.7024 c -0.86371,-8.26357 0.99556,-35.63739 3.36137,-49.48884 3.1247,-18.2947 10.18172,-46.74306 12.12483,-48.87777 1.51725,-1.66686 0.96959,1.70802 -2.53551,15.62492 -6.0248,23.92126 -8.958,49.14104 -8.46429,72.77634 l 0.36453,17.45126 -3.5,0.67883 c -8.62894,1.67359 -11.13286,1.8173 -10.74146,0.61648 z m 65.02837,-4.53308 c -8.62569,-7.22823 -23.24531,-39.8087 -32.34765,-72.08818 -4.84552,-17.18355 -3.59866,-22.00018 1.57302,-6.07657 6.41405,19.74892 17.20678,44.65932 24.69594,57 3.14552,5.18322 4.77496,9.1429 5.2749,12.81849 0.58013,4.26516 1.19807,5.53476 3.12014,6.41051 2.33646,1.06456 3.17013,3.17498 1.63017,4.12674 -0.42162,0.26057 -2.19755,-0.72537 -3.94652,-2.19099 z m 79.44586,-40.82762 c -0.27113,-0.46042 -0.81169,-5.19488 -1.20124,-10.52103 -0.6873,-9.39722 -0.23956,-13.8161 1.39992,-13.8161 1.20814,0 2.40939,23.05916 1.26107,24.20748 -0.53173,0.53173 -1.18862,0.59008 -1.45975,0.12965 z M 451.41047,270.25 c -0.3452,-1.5125 -1.6771,-7.025 -2.95979,-12.25 -5.75946,-23.4611 -8.61549,-40.51181 -9.17074,-54.75 -0.34002,-8.71918 -0.18714,-14.25 0.39389,-14.25 0.52228,0 1.45826,6.4125 2.07997,14.25 0.69664,8.78203 2.69956,21.73249 5.21979,33.75 5.05766,24.11708 7.00744,36 5.90697,36 -0.46335,0 -1.12489,-1.2375 -1.47009,-2.75 z m 139.74782,-14.5 c -3.36329,-5.45219 -27.90058,-53.54307 -33.29234,-65.25 -6.25966,-13.59136 -20.88922,-49.71633 -23.6908,-58.5 -2.15039,-6.74205 -4.19861,-16.84319 -4.14335,-20.43366 0.03,-1.94742 0.1095,-1.96394 1.38174,-0.28695 1.16686,1.53809 1.42951,1.57199 1.93681,0.25 1.53485,-3.99975 5.64965,0.91631 5.64965,6.74977 0,1.08939 3.43986,12.38474 7.64414,25.10078 11.36355,34.3696 23.73614,65.02212 38.89882,96.37006 5.12107,10.5875 8.93059,19.25 8.4656,19.25 -0.46499,0 -1.74761,-1.4625 -2.85027,-3.25 z M 481.63278,249.48543 C 480.71551,247.09506 480.85693,244 481.88342,244 c 1.18776,0 2.16895,5.28675 1.17244,6.31722 -0.43466,0.44947 -1.07505,0.0752 -1.42308,-0.83179 z M 470.69172,240.8504 C 467.2966,235.55867 457.23512,217.78814 449.26124,203 c -3.08758,-5.72615 -3.19373,-6.14284 -0.89158,-3.5 6.11398,7.01876 27.10449,43.60412 26.3266,45.88588 -0.2089,0.61277 -2.01095,-1.4282 -4.00454,-4.53548 z m 24.82072,0.16972 c -0.39232,-0.63477 -1.20095,-5.85614 -1.79697,-11.60303 -0.79984,-7.7122 -0.78803,-10.74453 0.0451,-11.57764 1.32573,-1.32573 1.51473,-0.56739 3.24326,13.01344 0.7809,6.13543 0.85182,9.69148 0.20617,10.33713 -0.64566,0.64566 -1.22962,0.58721 -1.69754,-0.1699 z M 487.60416,228.5 c -0.46991,-1.1 -1.07229,-9.2 -1.33862,-18 -0.47209,-15.59818 -0.55057,-16.07157 -3.1249,-18.84985 C 476.75924,184.76317 468,180.74233 468,184.7 c 0,1.22387 -0.30439,1.39561 -1.08682,0.61318 -2.49817,-2.49817 3.75869,-19.30095 15.66311,-42.06318 L 488.98292,131 h -5.39918 c -3.78386,0 -6.84787,0.74323 -10.24145,2.48426 -6.11507,3.13724 -14.24874,4.09215 -21.69272,2.54679 -7.75836,-1.61063 -6.94065,-3.48344 1.61185,-3.69162 9.03875,-0.22002 12.63212,-2.26684 4.05368,-2.30902 -3.4017,-0.0167 -7.4517,-0.56424 -9,-1.21669 -2.59125,-1.09195 -2.17895,-1.23914 5.1849,-1.85095 12.09564,-1.00495 19.01923,-3.38508 24.9306,-8.57043 4.43999,-3.89469 11.83512,-7.48579 12.9788,-6.30256 0.21808,0.22562 0.52586,3.56022 0.68395,7.41022 0.15809,3.85 0.8501,7.68097 1.53779,8.51327 0.6877,0.8323 1.9157,7.1323 2.7289,14 2.48638,20.99816 2.89141,27.71329 1.71538,28.44012 -0.59148,0.36555 -1.07975,0.52559 -1.08503,0.35563 C 496.9851,170.63906 495.86442,163.975 494.5,156 c -1.36442,-7.975 -2.50612,-16.75 -2.5371,-19.5 l -0.0563,-5 -4.04228,9.5 c -2.22326,5.225 -5.58682,13.89633 -7.47458,19.26963 -1.88775,5.3733 -4.5477,12.29179 -5.91099,15.37443 -2.93911,6.64586 -2.90049,6.35594 -0.84674,6.35594 2.28174,0 7.3489,3.2709 18.23945,11.77373 5.15428,4.02422 9.55299,7.1352 9.7749,6.91328 0.95468,-0.95468 -3.14204,-16.34538 -4.77555,-17.94097 -2.38628,-2.33088 -4.75275,-10.43281 -5.89578,-20.18495 -0.86805,-7.40605 -0.72163,-9.64106 0.5484,-8.37104 0.28786,0.28787 1.45136,5.42537 2.58556,11.41667 1.33786,7.06715 2.68793,11.47815 3.84374,12.55845 1.77936,1.6631 6.29731,17.74005 6.29731,22.40872 0,2.79992 2.30479,4.6846 12.75047,10.42637 3.79586,2.0865 7.03611,3.39817 7.20055,2.91481 0.16444,-0.48335 3.55467,0.74201 7.53384,2.72303 8.05834,4.01183 9.10572,6.58595 1.18695,2.91713 -2.76686,-1.2819 -5.30616,-2.60624 -5.64289,-2.94298 -0.86269,-0.86269 -2.32921,-0.76312 -2.02892,0.13775 1.03085,3.09255 -7.92063,-1.1978 -21.14323,-10.13374 C 497.90835,202.42732 492.42361,199 491.91846,199 c -0.50515,0 -0.95893,1.0125 -1.0084,2.25 -0.45744,11.44327 -2.58094,28.94702 -3.3059,27.25 z M 470.85943,176 c 0,-0.94548 -0.31771,-0.76064 -0.85943,0.5 -0.47269,1.1 -0.85943,2.675 -0.85943,3.5 0,0.94548 0.31771,0.76064 0.85943,-0.5 0.47269,-1.1 0.85943,-2.675 0.85943,-3.5 z M 581,224.99583 c 0,-0.49305 0.7875,-1.37499 1.75,-1.95988 1.41732,-0.86127 1.22722,-0.94516 -1,-0.44128 -1.62942,0.36863 -2.75,0.2004 -2.75,-0.41287 0,-2.82223 23.66945,-13.23718 45.5,-20.02075 C 639.06321,197.63572 652.92554,194 655.61661,194 c 3.79997,0 -0.46938,1.89761 -10.11661,4.49657 -11.40567,3.07268 -15.12463,4.743 -9,4.04223 2.2,-0.25172 7.36519,-0.71362 11.47819,-1.02643 12.28631,-0.93443 6.85021,1.14768 -7.50855,2.87589 -15.39824,1.85333 -20.96473,3.62689 -36.9176,11.76249 C 590.9018,222.60209 581,226.48565 581,224.99583 Z m -58.44584,-18.63605 c -0.36446,-1.45212 -1.04193,-7.00675 -1.5055,-12.34363 -0.85483,-9.84125 -0.31295,-20.12886 2.39746,-45.51615 0.82208,-7.7 1.508,-14.3375 1.52428,-14.75 0.0163,-0.4125 0.44614,-0.75 0.95524,-0.75 1.01866,0 0.63201,11.95718 -0.9514,29.4223 -0.55238,6.09273 -0.79603,19.0652 -0.54146,28.8277 0.42689,16.37079 -0.23201,21.67038 -1.87862,15.10978 z"
       id="path1" />
  </g>
</svg>
